# xmcd
#
# Track frame offsets:
#	150
#	15598
#	33882
#	50406
#	72162
#	82222
#	97676
#	115554
#	130031
#	142910
#	164549
#	185852
#	205328
#	217449
#	249408
#	257878
#	285296
#	308122
#
# Disc length: 4462 seconds
#
# Revision: 2
# Processed by: cddbd v1.5.2PL0 Copyright (c) Steve Scherf et al.
# Submitted via: audiograbber 1.83.01
#
DISCID=00116c12
DTITLE=Various Artist - Saturday Night Blues 20 Years - Disc 2
DYEAR=2006
DGENRE=Blues
TTITLE0=Long John Baldry - It Ain't Easy
TTITLE1=David Gogo - Things Is About To Change
TTITLE2=Brent Parkin and Rusty Reed - You Got Me Wrong
TTITLE3=Ellen McIlwaine   - Howl at the Moon
TTITLE4=Morgan Davis - Older and Dumber
TTITLE5=Jack Semple - Hard Times
TTITLE6=Roxanne Potvin - Ain't It a Shame
TTITLE7=Rick Fines - What's Home to Me
TTITLE8=Ken Hamm - She Moves Me
TTITLE9=Nanette Workman - I Lost My Baby
TTITLE10=Dutch Mason - Walkin' Blues
TTITLE11=Dawn Tyler Watson - Start It Up
TTITLE12=Michael Jerome Brown - Reuben
TTITLE13=Donald Ray Johnson - 209
TTITLE14=Colin James and Colin Linden - Postman's Sack
TTITLE15=Mel Brown - Hold On to You Baby
TTITLE16=Big Dave McLean - Howlin' for My Baby
TTITLE17=Colin Linden - I Give Up
EXTD=YEAR: 2006
EXTT0=
EXTT1=
EXTT2=
EXTT3=
EXTT4=
EXTT5=
EXTT6=
EXTT7=
EXTT8=
EXTT9=
EXTT10=
EXTT11=
EXTT12=
EXTT13=
EXTT14=
EXTT15=
EXTT16=
EXTT17=
PLAYORDER=
